HIERARCHY
ROOT Hips
{
	OFFSET 302.116486 91.969017 -502.769196
	CHANNELS 6 Xposition Yposition Zposition Zrotation Yrotation Xrotation 
	JOINT LeftUpLeg
	{
		OFFSET 0.103459 1.857831 10.548511
		CHANNELS 3 Zrotation Yrotation Xrotation
		JOINT LeftLeg
		{
			OFFSET 43.500000 -0.000050 0.000000
			CHANNELS 3 Zrotation Yrotation Xrotation
			JOINT LeftFoot
			{
				OFFSET 42.372196 0.000015 0.000013
				CHANNELS 3 Zrotation Yrotation Xrotation
				JOINT LeftToe
				{
					OFFSET 17.299992 -0.000003 0.000004
					CHANNELS 3 Zrotation Yrotation Xrotation
					End Site
					{
						OFFSET 0.000000 0.000000 0.000000
					}
				}
			}
		}
	}
	JOINT RightUpLeg
	{
		OFFSET 0.103458 1.857840 -10.548509
		CHANNELS 3 Zrotation Yrotation Xrotation
		JOINT RightLeg
		{
			OFFSET 43.500038 -0.000042 -0.000002
			CHANNELS 3 Zrotation Yrotation Xrotation
			JOINT RightFoot
			{
				OFFSET 42.372261 0.000004 0.000031
				CHANNELS 3 Zrotation Yrotation Xrotation
				JOINT RightToe
				{
					OFFSET 17.299984 -0.000009 0.000004
					CHANNELS 3 Zrotation Yrotation Xrotation
					End Site
					{
						OFFSET 0.000000 0.000000 0.000000
					}
				}
			}
		}
	}
	JOINT Spine
	{
		OFFSET 6.901966 -2.603730 0.000007
		CHANNELS 3 Zrotation Yrotation Xrotation
		JOINT Spine1
		{
			OFFSET 12.588103 -0.000008 0.000003
			CHANNELS 3 Zrotation Yrotation Xrotation
			JOINT Spine2
			{
				OFFSET 12.343202 0.000024 -0.000014
				CHANNELS 3 Zrotation Yrotation Xrotation
				JOINT Neck
				{
					OFFSET 25.832888 -0.000004 0.000015
					CHANNELS 3 Zrotation Yrotation Xrotation
					JOINT Head
					{
						OFFSET 11.766605 -0.000005 -0.000022
						CHANNELS 3 Zrotation Yrotation Xrotation
						End Site
						{
							OFFSET 0.000000 0.000000 0.000000
						}
					}
				}
				JOINT LeftShoulder
				{
					OFFSET 19.745907 -1.480368 6.000113
					CHANNELS 3 Zrotation Yrotation Xrotation
					JOINT LeftArm
					{
						OFFSET 11.284131 0.000002 -0.000036
						CHANNELS 3 Zrotation Yrotation Xrotation
						JOINT LeftForeArm
						{
							OFFSET 33.000053 -0.000000 0.000032
							CHANNELS 3 Zrotation Yrotation Xrotation
							JOINT LeftHand
							{
								OFFSET 25.200001 0.000002 0.000014
								CHANNELS 3 Zrotation Yrotation Xrotation
								End Site
								{
									OFFSET 0.000000 0.000000 0.000000
								}
							}
						}
					}
				}
				JOINT RightShoulder
				{
					OFFSET 19.746090 -1.480385 -6.000069
					CHANNELS 3 Zrotation Yrotation Xrotation
					JOINT RightArm
					{
						OFFSET 11.284133 -0.000013 -0.000012
						CHANNELS 3 Zrotation Yrotation Xrotation
						JOINT RightForeArm
						{
							OFFSET 33.000103 0.000006 0.000008
							CHANNELS 3 Zrotation Yrotation Xrotation
							JOINT RightHand
							{
								OFFSET 25.199774 0.000153 0.000412
								CHANNELS 3 Zrotation Yrotation Xrotation
								End Site
								{
									OFFSET 0.000000 0.000000 0.000000
								}
							}
						}
					}
				}
			}
		}
	}
}
MOTION
Frames: 14
Frame Time: 0.033333
140.340073 -2.831005 250.729401 85.361305 2.745535 104.738182 165.194458 -11.910502 175.840271 -72.737389 7.104892 4.099627 56.627777 -5.527176 -4.443904 21.454550 0.003088 0.000003 162.333420 -6.968787 -171.085266 -30.807690 4.922843 5.364199 80.537575 -4.862628 -4.267290 21.454556 -0.003112 -0.000017 7.182715 2.006991 0.532332 4.375122 3.992564 1.140182 4.056247 3.999516 1.116011 -8.461491 6.960008 -5.532379 22.427774 -17.643353 -3.559481 166.146698 -79.378426 12.520941 -17.077795 60.436455 20.155289 -34.743271 -11.777898 1.120144 -0.047096 -4.015878 20.091969 -160.255692 74.437019 21.651354 -10.717607 -56.803696 -33.220165 -28.453951 12.323497 -1.054777 2.732791 4.684822 -12.748791 
140.896500 -2.576527 255.154297 85.269958 2.792838 103.263992 160.151352 -10.879895 176.147980 -73.505028 6.451572 2.735334 59.580421 -4.363456 -4.549618 21.454548 0.003084 0.000004 166.462799 -8.151894 -172.970413 -28.556837 4.871665 5.469884 81.986557 -4.804644 -4.067031 21.454556 -0.003107 -0.000018 7.226748 1.865604 0.836737 4.471143 3.697736 1.745200 4.152481 3.708351 1.722810 -8.174820 6.976110 -5.505331 22.178146 -17.284159 -3.514814 167.839096 -79.416649 10.801453 -14.871388 61.650406 24.549807 -32.519173 -10.976471 1.019928 0.312786 0.054811 22.490461 -160.620499 74.679253 21.274378 -12.221445 -57.261509 -31.676340 -30.376059 13.135560 -1.143373 2.249459 5.800431 -12.217158 
141.429489 -2.584538 259.567810 85.388039 2.595542 101.637611 155.356827 -9.496801 176.066208 -71.925919 5.857896 2.552473 64.069321 -3.483300 -3.398744 21.454548 0.003090 0.000003 170.476944 -8.747701 -174.444504 -26.425573 4.817435 5.180086 83.405762 -4.582437 -4.304542 21.454556 -0.003118 -0.000016 7.243574 1.660701 1.155899 4.510137 3.275440 2.376062 4.191769 3.289865 2.356237 -8.154407 6.872880 -5.460173 21.823673 -16.829641 -3.449569 169.027649 -79.403419 9.595110 -11.918900 62.756340 29.025126 -30.907457 -10.290023 0.942618 0.701499 3.158464 23.574389 -160.718353 75.025101 21.169437 -13.554227 -57.706074 -29.894548 -33.309101 14.189558 -1.271977 1.657806 6.517854 -12.209203 
141.898972 -2.790669 263.949707 85.513504 2.228301 100.008507 151.253296 -8.303496 175.861526 -67.531342 5.181618 3.142031 68.474121 -3.524342 -2.918707 21.454550 0.003092 0.000002 174.161362 -8.801105 -175.184265 -24.753036 5.000446 4.387232 84.924164 -4.090243 -4.878650 21.454556 -0.003112 -0.000019 7.248398 1.465149 1.460204 4.522726 2.872581 2.976973 4.204661 2.890624 2.959586 -8.353855 6.625504 -5.387651 21.430285 -16.384775 -3.374451 170.446075 -79.159096 8.162573 -8.780197 63.605534 33.012028 -29.626326 -9.645267 0.875991 1.015228 4.989776 23.325130 -160.650879 75.327759 21.234365 -14.976347 -57.787094 -28.000555 -37.003769 15.231212 -1.424646 0.893668 7.124864 -12.470280 
142.298294 -3.259068 268.338623 85.638840 1.785520 98.509003 147.811218 -7.122999 175.577408 -60.806194 4.474603 3.060673 71.021683 -3.275047 -2.771131 21.454550 0.003087 -0.000000 177.620621 -8.565900 -175.683121 -23.308500 5.336414 3.476838 86.455956 -3.515187 -5.471370 21.454554 -0.003107 -0.000017 7.271873 1.299065 1.723138 4.570632 2.529616 3.496645 4.252854 2.550793 3.481334 -8.784624 6.286043 -5.291972 21.043415 -16.079643 -3.286687 172.090698 -78.635445 6.507002 -6.056490 64.194443 35.974873 -28.388926 -9.038589 0.813774 1.142944 5.495615 22.441734 -160.725052 75.488724 21.156351 -16.700951 -57.325233 -26.069109 -40.956429 16.128546 -1.584890 -0.000814 7.916974 -12.845592 
142.665878 -3.670537 272.718018 85.486816 1.333263 97.242699 145.271042 -6.278902 175.051636 -51.724800 3.927940 2.667112 72.000580 -2.553867 -1.691377 21.454548 0.003094 -0.000001 -179.096313 -8.570404 -176.525833 -22.040720 5.686775 2.880735 88.008820 -3.096198 -5.812256 21.454556 -0.003103 -0.000017 7.313104 1.214242 1.941357 4.654665 2.350034 3.930380 4.337100 2.373835 3.916147 -9.478815 5.975172 -5.184371 20.671877 -15.962601 -3.167066 173.253693 -77.974373 5.342588 -4.099555 64.615906 37.858742 -26.997372 -8.456773 0.751664 1.124878 4.804610 21.474861 -161.277512 75.552589 20.590582 -18.614069 -56.454903 -24.116346 -44.623169 16.853754 -1.736336 -0.900770 8.901157 -13.424120 
143.036484 -4.094967 277.145935 85.556854 0.755517 96.232903 144.196304 -5.584591 173.901932 -39.823799 3.341832 2.975972 69.787155 -3.194337 -2.860857 21.454548 0.003101 0.000001 -175.634995 -8.423480 -178.052155 -19.996925 5.941924 2.816198 88.757332 -3.017676 -5.816335 21.454556 -0.003104 -0.000017 7.353918 1.097279 2.099132 4.734868 2.108387 4.241753 4.417481 2.134088 4.228971 -10.424623 5.745234 -5.056312 20.386236 -15.915051 -3.006974 173.666306 -77.395851 4.938227 -3.237857 64.992554 38.733723 -25.450781 -7.922571 0.691650 1.137767 3.603450 20.777742 -162.198700 75.681725 19.647266 -20.589504 -55.603184 -22.023783 -47.567017 17.393835 -1.861714 -1.704821 9.778250 -14.290037 
143.437973 -4.595409 281.641113 85.828117 0.192936 95.414215 144.327087 -4.727903 172.918137 -26.783524 2.443191 3.915587 67.464622 -4.547116 -4.552952 21.454550 0.003107 0.000002 -172.042694 -8.072016 -179.690903 -17.641399 6.065233 3.046296 88.802643 -3.133061 -5.555839 21.454556 -0.003115 -0.000017 7.396365 0.945042 2.214552 4.815568 1.797781 4.466749 4.498356 1.824834 4.455846 -11.521602 5.579101 -4.910080 20.232723 -15.786598 -2.828330 173.804474 -76.976807 4.808666 -3.378307 65.255669 38.886818 -23.948668 -7.512597 0.642186 1.334455 2.947164 20.687763 -163.063187 75.963417 18.760666 -22.355236 -55.103233 -19.905941 -49.615242 17.748009 -1.950842 -2.306558 10.244884 -15.317039 
143.905899 -5.225300 286.388214 86.331009 -0.157053 94.635971 144.978149 -3.656905 172.774719 -16.225403 1.180596 4.153438 67.296204 -4.597092 -4.274624 21.454546 0.003094 0.000001 -168.550522 -7.326896 179.408356 -15.921259 6.120582 2.960889 88.358391 -3.091251 -5.463968 21.454556 -0.003114 -0.000016 7.475981 0.741305 2.319667 4.967708 1.383019 4.669121 4.650660 1.411307 4.660700 -12.612735 5.485850 -4.774988 20.121778 -15.559921 -2.653098 174.272766 -76.674194 4.339135 -4.407208 65.247681 38.326344 -22.726870 -7.248850 0.607778 1.679560 3.247489 21.300484 -163.618500 76.335732 18.189829 -23.674820 -55.039822 -17.998274 -50.837585 17.941662 -2.004118 -2.651625 10.275990 -16.253027 
144.474075 -5.842510 291.466705 86.872406 -0.193547 93.778793 145.116577 -2.679509 172.410904 -12.451089 0.584435 3.311538 68.804054 -4.416166 -5.757673 21.454550 0.003094 0.000003 -165.675919 -6.312304 179.817093 -16.284096 6.038586 2.078643 87.247314 -2.558886 -5.470572 21.454556 -0.003108 -0.000019 7.580194 0.502565 2.437456 5.166886 0.896483 4.894885 4.850026 0.926114 4.889415 -13.532513 5.550269 -4.686568 19.933453 -15.327455 -2.480192 175.201553 -76.440346 3.397377 -5.774484 64.874031 37.380077 -21.892536 -7.081327 0.585749 2.033381 3.799664 22.156664 -163.855774 76.673256 17.944603 -24.184399 -55.404854 -16.880688 -51.350811 18.024454 -2.026864 -2.749249 10.176362 -16.755245 
145.152695 -6.211704 296.715912 87.841637 -0.059382 92.869690 144.914993 -1.316698 170.989166 -15.538867 0.957883 2.996446 68.477379 -4.003675 -5.162593 21.454546 0.003086 0.000000 -163.607330 -4.764290 -178.795593 -18.754467 5.453987 0.551702 85.043251 -1.491742 -4.797805 21.454557 -0.003100 -0.000018 7.664186 0.124285 2.520578 5.318532 0.133262 5.044174 5.001778 0.163825 5.043276 -14.293430 5.915078 -4.677523 19.764458 -15.175045 -2.305291 176.344254 -76.201027 2.236727 -6.905834 64.107964 36.540405 -21.348570 -6.992158 0.572996 2.259893 3.586949 22.523350 -163.602371 76.802330 18.202168 -23.706350 -56.151344 -17.127176 -51.172798 18.017550 -2.020410 -2.662618 10.277177 -16.640303 
145.855179 -6.430088 302.018616 89.894714 0.110023 92.066719 144.596237 1.243505 170.256165 -21.966080 2.146417 3.214197 66.989876 -2.555571 -0.548295 21.454546 0.003080 -0.000004 -163.031204 -2.213500 -177.243408 -23.713232 4.237927 -0.987241 80.481499 -0.277293 -3.443740 21.454561 -0.003102 -0.000016 7.730085 -0.533688 2.486694 5.422112 -1.182646 4.946019 5.105250 -1.152659 4.953056 -15.027067 6.718183 -4.791149 19.763992 -15.152745 -2.132701 177.023682 -75.923218 1.549115 -7.804003 62.981281 35.825813 -20.912968 -6.936291 0.563960 2.366172 2.139407 21.964151 -162.916870 76.621078 18.903639 -22.375805 -57.192471 -18.671984 -50.206566 17.823811 -1.975307 -2.450689 10.664657 -15.976147 
146.460983 -6.421589 307.224915 92.455597 0.347875 91.453606 145.264969 4.361095 171.376602 -26.547693 3.050904 1.975251 64.894508 -1.510278 -0.070596 21.454548 0.003101 0.000000 -164.779312 0.930301 -176.347107 -32.116455 2.415888 -2.246735 72.019203 1.911002 1.113965 21.454556 -0.003107 -0.000017 7.804712 -1.325677 2.345240 5.542434 -2.761524 4.625932 5.225077 -2.733435 4.642494 -15.727386 7.881395 -5.010087 19.880772 -15.293073 -1.953701 176.474152 -75.759743 2.114231 -8.942816 61.689671 34.759491 -20.534618 -6.883399 0.555951 2.435076 0.173088 20.811058 -162.395874 76.343285 19.438488 -20.475338 -58.462173 -20.846249 -48.351803 17.312704 -1.881143 -2.071219 11.171422 -15.036325 
146.986374 -6.179813 312.226013 94.617432 0.583572 91.382370 146.259293 6.841899 172.525970 -31.074665 2.908088 0.365538 66.292252 -0.277527 0.102143 21.454548 0.003086 -0.000001 -169.671829 3.637495 -176.438400 -44.548481 0.633998 -3.386887 60.141979 4.827826 5.146072 21.454550 -0.003103 -0.000014 7.890587 -1.975721 2.080507 5.699963 -4.050956 4.064100 5.381888 -4.026221 4.088473 -16.145252 8.955808 -5.156593 19.968826 -15.580310 -1.734838 174.815781 -75.823486 3.806765 -11.104056 60.399914 32.710567 -20.438747 -6.888242 0.555138 2.504442 -0.831108 19.923382 -162.379074 76.330101 19.455793 -18.522387 -59.820496 -23.028797 -45.715618 16.514496 -1.746594 -1.326552 11.397171 -14.008106 
